<?xml version="1.0" standalone="no"?>
<!DOCTYPE svg PUBLIC "-//W3C//DTD SVG 20010904//EN"
 "http://www.w3.org/TR/2001/REC-SVG-20010904/DTD/svg10.dtd">
<svg version="1.0" xmlns="http://www.w3.org/2000/svg"
 width="1050.000000pt" height="1050.000000pt" viewBox="0 0 1050.000000 1050.000000"
 preserveAspectRatio="xMidYMid meet">
<metadata>
Created by potrace 1.11, written by Peter Selinger 2001-2013
</metadata>
<g transform="translate(0.000000,1050.000000) scale(0.100000,-0.100000)"
fill="#000000" stroke="none">
<path d="M3158 10324 c-2 -1 -26 -6 -53 -9 -53 -7 -75 -11 -115 -20 -14 -3
-41 -8 -60 -11 -19 -3 -39 -9 -45 -12 -5 -4 -19 -8 -30 -9 -27 -5 -139 -40
-162 -51 -57 -29 -159 -76 -165 -76 -4 -1 -45 -25 -90 -55 -86 -57 -241 -204
-253 -240 -3 -12 -10 -21 -15 -21 -5 0 -12 -10 -16 -22 -3 -13 -12 -30 -20
-39 -7 -8 -15 -24 -17 -35 -2 -10 -11 -35 -20 -55 -9 -20 -19 -51 -22 -70 -3
-18 -8 -35 -10 -39 -23 -37 -23 -408 0 -472 2 -7 7 -29 9 -48 7 -50 17 -101
29 -150 4 -14 9 -36 11 -50 3 -14 21 -83 41 -155 45 -163 41 -150 60 -215 9
-30 18 -62 20 -70 2 -8 8 -30 14 -47 5 -18 8 -33 5 -33 -3 0 0 -9 6 -21 6 -11
13 -28 15 -37 2 -9 19 -80 39 -157 19 -77 38 -158 42 -180 10 -49 11 -54 13
-57 3 -3 10 -47 16 -88 1 -14 4 -25 5 -25 2 0 7 -27 14 -70 2 -16 6 -43 9 -60
14 -80 20 -125 32 -220 3 -33 8 -71 10 -85 33 -231 40 -884 11 -1035 -2 -11
-7 -54 -11 -95 -3 -41 -8 -82 -10 -90 -2 -8 -7 -40 -10 -70 -3 -30 -10 -77
-15 -105 -5 -27 -12 -65 -15 -84 -3 -19 -9 -39 -12 -44 -3 -6 -1 -7 4 -4 6 4
4 -12 -4 -36 -8 -23 -16 -55 -18 -72 -2 -16 -4 -30 -5 -30 -1 0 -4 -11 -6 -25
-3 -14 -9 -43 -15 -65 -6 -22 -12 -47 -14 -55 -2 -8 -19 -78 -39 -155 -20 -77
-39 -148 -41 -158 -2 -10 -7 -27 -10 -37 -7 -22 -14 -54 -22 -95 -2 -16 -10
-36 -15 -43 -6 -6 -8 -12 -5 -12 3 0 -1 -25 -10 -56 -8 -31 -12 -59 -8 -62 3
-3 72 -6 153 -7 81 -1 153 -4 159 -8 6 -4 14 -3 18 3 4 6 11 8 16 4 5 -3 38
-7 72 -10 62 -4 194 -14 252 -19 17 -1 53 -5 80 -9 28 -3 70 -9 95 -12 74 -9
113 -14 145 -19 17 -3 46 -7 65 -10 19 -2 46 -6 60 -9 14 -3 43 -7 65 -10 22
-3 63 -10 90 -15 28 -5 68 -12 90 -16 22 -3 51 -9 65 -11 14 -3 34 -7 45 -9
11 -2 20 -4 20 -5 0 -1 14 -3 30 -5 17 -1 30 -3 30 -4 0 -2 11 -4 25 -7 21 -4
170 -35 235 -50 67 -15 113 -25 130 -29 11 -2 30 -6 43 -9 12 -4 32 -8 45 -12
12 -3 33 -7 47 -10 14 -3 33 -7 42 -10 16 -5 38 -10 86 -20 13 -3 22 1 23 8 0
13 6 51 12 78 1 8 6 21 10 28 5 6 6 12 4 12 -3 0 2 28 9 63 8 34 17 73 20 87
3 14 15 63 26 110 12 47 22 92 23 100 1 8 5 22 9 31 4 9 8 27 10 40 2 13 6 31
9 39 3 8 8 29 12 45 10 53 14 67 50 210 20 77 41 157 46 178 5 21 7 42 4 47
-3 4 -1 10 4 12 5 1 12 19 15 38 8 40 14 65 16 65 1 0 4 11 6 25 1 14 10 52
18 85 8 33 17 71 20 85 3 14 19 87 35 163 17 76 29 143 26 148 -4 5 -2 9 3 9
5 0 9 6 10 13 1 16 7 52 17 107 5 25 9 47 10 50 0 3 4 11 8 18 5 7 4 12 -3 12
-7 0 -8 6 -1 18 5 9 12 40 16 67 4 28 9 59 10 70 2 11 4 20 5 20 1 0 3 9 4 20
11 86 18 142 21 156 2 9 6 40 10 69 4 29 8 60 10 69 3 19 16 138 21 191 1 19
5 60 9 90 4 30 8 93 10 140 2 47 4 85 5 85 19 0 15 932 -4 964 -4 6 -2 11 4
11 6 0 8 5 5 11 -4 5 -9 31 -11 57 -5 65 -13 142 -18 172 -3 14 -7 45 -11 70
-5 39 -21 122 -41 210 -3 14 -6 34 -8 46 -1 11 -5 25 -9 30 -3 6 -9 26 -12 44
-3 19 -11 40 -17 47 -6 7 -8 13 -4 13 8 0 -58 181 -94 258 -17 35 -30 67 -30
72 0 6 -4 10 -9 10 -5 0 -11 10 -15 23 -7 28 -114 201 -127 205 -5 2 -9 8 -9
13 0 11 -2 13 -67 89 -61 70 -140 148 -183 180 -18 14 -38 30 -44 35 -22 21
-103 73 -177 114 -107 58 -226 105 -334 131 -79 19 -82 19 -205 39 -50 8 -375
12 -382 5z"/>
<path d="M6985 10122 c-1 -1 -38 -4 -81 -7 -44 -2 -81 -4 -84 -5 -3 -1 -8 -2
-11 -2 -7 1 -106 -14 -144 -22 -102 -21 -345 -102 -356 -118 -3 -5 -8 -9 -10
-7 -7 4 -84 -35 -142 -73 -32 -21 -60 -38 -63 -38 -20 0 -226 -209 -218 -221
3 -5 1 -9 -5 -9 -5 0 -19 -21 -32 -47 -12 -27 -27 -51 -33 -55 -6 -4 -7 -8 -2
-8 5 0 4 -6 -1 -12 -16 -21 -43 -121 -57 -205 -11 -71 -13 -280 -2 -328 2 -11
5 -33 5 -48 1 -20 5 -26 14 -21 9 5 9 4 1 -5 -11 -12 -8 -32 25 -186 5 -27 15
-65 20 -83 5 -18 10 -36 11 -40 0 -4 3 -16 6 -28 3 -11 6 -27 8 -35 6 -29 19
-75 33 -119 8 -25 16 -52 18 -60 9 -44 26 -100 33 -104 8 -4 95 -18 125 -20 9
0 17 -3 17 -6 0 -3 15 -5 33 -4 17 0 36 -2 42 -5 5 -2 23 -6 40 -8 16 -1 53
-5 80 -9 235 -28 415 -38 695 -38 212 0 414 7 510 19 19 2 62 6 95 9 33 3 71
8 85 10 14 3 50 7 80 10 30 3 66 8 80 10 14 3 45 8 70 10 25 3 56 8 70 11 14
3 41 7 60 10 19 2 35 4 35 5 0 2 36 9 75 14 19 3 35 5 35 6 0 1 9 3 19 5 53
10 175 37 201 45 17 5 44 12 60 15 17 3 71 15 120 28 76 20 90 26 88 42 -1 11
-4 48 -6 82 -3 33 -7 65 -10 70 -2 4 -8 32 -11 62 -4 29 -8 57 -11 61 -2 4 -7
26 -10 50 -3 23 -8 47 -12 53 -4 6 -8 20 -9 31 -3 32 -29 122 -64 216 -17 47
-32 93 -35 102 -9 38 -118 248 -170 327 -30 46 -55 85 -55 86 0 6 -90 105
-155 170 -73 74 -213 185 -233 185 -7 0 -12 5 -12 10 0 6 -7 10 -15 10 -8 0
-15 5 -15 11 0 5 -4 8 -9 4 -5 -3 -13 0 -16 5 -7 11 -41 27 -59 28 -5 0 -12 5
-15 11 -13 20 -233 97 -336 117 -11 2 -31 6 -45 9 -25 6 -84 13 -151 19 -20 2
-41 6 -47 10 -6 3 -13 2 -17 -4 -4 -6 -11 -7 -17 -4 -11 7 -107 12 -113 6z"/>
<path d="M1960 8553 c-30 -8 -71 -16 -90 -19 -19 -2 -37 -8 -40 -12 -5 -7 -9
-8 -53 -16 -12 -3 -22 -5 -22 -6 0 -1 -7 -3 -15 -5 -28 -6 -183 -66 -244 -94
-34 -15 -71 -31 -84 -35 -12 -4 -22 -11 -22 -16 0 -4 -10 -10 -22 -14 -25 -6
-213 -127 -268 -172 -71 -59 -211 -206 -265 -278 -30 -41 -55 -77 -55 -80 0
-3 -15 -29 -33 -58 -38 -60 -90 -167 -90 -185 0 -7 -5 -13 -10 -13 -6 0 -7 -3
-4 -7 4 -3 2 -12 -4 -20 -6 -7 -8 -13 -4 -13 4 0 3 -6 -3 -13 -14 -16 -69
-229 -78 -298 -11 -96 -15 -153 -15 -224 1 -101 10 -275 16 -310 3 -16 12 -68
21 -115 49 -272 177 -525 342 -679 101 -94 109 -101 127 -101 8 0 15 -4 15 -9
0 -12 117 -67 193 -91 65 -20 106 -28 171 -35 22 -2 45 -6 52 -9 7 -3 15 0 18
7 2 7 5 7 5 2 1 -11 34 -11 161 -1 117 9 260 40 490 106 41 11 80 22 85 23 35
9 48 27 50 68 2 24 5 60 8 79 3 19 8 62 12 95 3 33 8 74 10 90 18 138 24 625
11 820 -4 61 -9 137 -11 170 -5 63 -8 98 -26 230 -12 90 -18 132 -24 190 -2
22 -5 40 -5 40 -3 0 -12 52 -13 73 -1 12 -3 22 -7 22 -3 0 -6 12 -7 28 -1 15
-4 41 -7 57 -11 58 -15 80 -21 105 -3 14 -7 36 -10 50 -10 50 -14 67 -46 190
-17 69 -32 133 -33 143 0 9 -4 17 -9 17 -4 0 -5 5 -2 10 3 6 3 16 -2 23 -4 6
-8 19 -10 27 -1 8 -9 38 -17 65 -8 28 -22 77 -31 110 -32 112 -23 103 -85 88z"/>
<path d="M9377 8424 c-3 -3 -99 -16 -133 -19 -17 -1 -36 -5 -43 -9 -6 -4 -11
-5 -11 -2 0 2 -15 0 -32 -5 -18 -5 -46 -11 -63 -14 -57 -8 -391 -96 -542 -143
-18 -6 -33 -8 -33 -5 0 3 -6 1 -13 -5 -7 -6 -26 -14 -42 -17 -48 -10 -49 -10
-62 -18 -7 -5 -13 -6 -13 -4 0 3 -33 -4 -72 -14 -40 -11 -82 -22 -92 -24 -11
-3 -51 -12 -90 -21 -39 -8 -82 -18 -96 -21 -14 -4 -33 -7 -42 -8 -10 -2 -19
-3 -20 -5 -4 -2 -26 -7 -78 -15 -25 -4 -54 -9 -65 -11 -11 -2 -31 -5 -45 -8
-14 -3 -61 -10 -105 -16 -44 -6 -91 -13 -105 -15 -14 -3 -54 -7 -90 -11 -36
-3 -76 -7 -90 -9 -170 -25 -829 -26 -980 -1 -14 2 -52 7 -85 10 -33 4 -71 8
-85 10 -14 2 -47 7 -75 11 -70 9 -114 16 -136 21 -11 2 -27 6 -38 8 -10 2 -34
7 -52 10 -30 5 -78 14 -159 32 -14 3 -115 28 -225 55 -110 28 -207 52 -215 54
-8 2 -15 4 -15 5 0 1 -13 4 -29 6 -16 3 -38 10 -49 15 -10 6 -21 8 -24 5 -3
-2 -17 0 -32 6 -14 5 -33 11 -41 13 -8 3 -24 7 -36 10 -20 6 -20 5 -19 -287 1
-161 -2 -300 -6 -309 -5 -9 -5 -19 -2 -23 11 -11 12 -36 2 -36 -6 0 -6 -7 0
-19 6 -10 8 -21 5 -24 -3 -3 -7 -46 -10 -95 -8 -195 -31 -453 -59 -662 -2 -14
-6 -45 -9 -70 -8 -66 -16 -122 -22 -148 -2 -12 -7 -44 -10 -70 -3 -26 -7 -58
-10 -72 -3 -14 -7 -38 -9 -55 -2 -16 -6 -39 -8 -50 -5 -20 -16 -85 -22 -128
-5 -30 -14 -76 -24 -112 -4 -16 -7 -43 -7 -60 1 -27 5 -31 50 -42 28 -7 61
-14 75 -17 15 -2 80 -18 146 -34 66 -17 131 -33 145 -36 14 -3 40 -9 58 -15
17 -5 32 -8 32 -5 0 3 8 0 18 -5 9 -5 31 -11 47 -14 23 -5 210 -50 335 -82 55
-14 141 -35 161 -38 13 -3 42 -10 64 -15 22 -6 51 -13 65 -16 14 -2 88 -18
165 -34 77 -17 165 -35 195 -41 30 -6 69 -13 85 -16 17 -3 44 -8 60 -11 17 -3
41 -7 55 -10 14 -3 39 -7 55 -9 17 -2 41 -7 55 -10 14 -3 45 -8 70 -11 25 -3
56 -7 70 -10 14 -3 39 -7 56 -9 18 -2 67 -8 110 -14 44 -6 102 -13 129 -16 28
-3 66 -8 85 -10 19 -3 69 -7 110 -10 41 -2 95 -7 120 -10 25 -2 85 -7 134 -10
49 -2 91 -7 93 -9 3 -3 15 -1 28 4 13 5 26 6 30 2 8 -8 575 -11 575 -2 0 7 66
4 79 -5 6 -3 11 -3 11 2 0 4 26 8 58 9 60 1 186 11 244 18 18 3 53 7 77 10 86
11 265 47 349 70 28 8 52 13 52 10 0 -2 20 5 45 16 25 11 49 20 53 20 13 0
107 33 117 40 6 4 21 11 35 15 37 12 174 78 181 88 3 5 9 8 13 7 4 -1 37 18
74 42 37 23 72 45 77 47 44 19 230 190 306 281 54 65 139 193 139 209 0 6 5
11 10 11 6 0 9 3 8 8 -1 4 14 41 34 82 61 130 113 312 122 435 1 17 4 35 7 40
7 12 2 331 -5 395 -17 140 -64 324 -110 431 -8 20 -12 39 -9 43 4 3 1 6 -5 6
-6 0 -13 14 -17 30 -4 17 -10 30 -15 30 -5 0 -12 10 -15 23 -7 23 -89 159
-115 190 -70 86 -173 177 -240 213 -19 10 -41 23 -49 28 -7 6 -18 11 -25 12
-6 1 -24 7 -41 14 -16 6 -31 11 -32 11 -2 0 -17 5 -35 10 -77 23 -152 32 -281
33 -60 1 -109 1 -110 0z"/>
<path d="M6071 5493 c-12 -54 -25 -109 -28 -123 -4 -14 -8 -29 -9 -35 -1 -5
-3 -12 -4 -15 -3 -8 -9 -33 -15 -65 -3 -16 -8 -37 -11 -45 -4 -8 -8 -24 -10
-35 -2 -11 -33 -132 -69 -270 -36 -137 -68 -261 -71 -275 -9 -37 -10 -41 -22
-85 -6 -22 -13 -51 -16 -65 -3 -14 -15 -63 -27 -110 -11 -47 -22 -92 -24 -100
-2 -8 -12 -53 -24 -100 -11 -47 -22 -96 -25 -110 -3 -14 -7 -36 -10 -50 -3
-14 -8 -36 -11 -50 -9 -42 -15 -69 -20 -92 -2 -12 -7 -40 -11 -62 -3 -22 -7
-43 -9 -46 -2 -3 -6 -25 -10 -50 -4 -25 -8 -47 -10 -50 -1 -3 -6 -27 -9 -54
-4 -27 -9 -52 -10 -55 -2 -3 -7 -26 -10 -51 -3 -25 -8 -54 -10 -65 -2 -11 -7
-42 -10 -70 -4 -27 -10 -66 -13 -85 -3 -19 -7 -51 -8 -70 -2 -19 -4 -35 -5
-35 -1 0 -3 -16 -5 -35 -9 -96 -14 -145 -15 -145 -1 0 -3 -20 -5 -45 -2 -25
-6 -90 -10 -145 -9 -120 -10 -548 -1 -660 10 -128 15 -180 16 -180 2 0 9 -50
14 -100 3 -22 7 -51 10 -65 4 -14 8 -38 10 -55 11 -76 45 -218 82 -340 10 -33
19 -62 19 -65 2 -6 11 -31 22 -58 4 -9 8 -21 9 -27 9 -50 132 -294 196 -389
29 -44 58 -86 63 -95 35 -53 215 -237 270 -276 16 -11 33 -24 39 -30 25 -22
76 -55 86 -55 5 0 10 -4 10 -10 0 -5 7 -10 15 -10 8 0 15 -5 15 -12 0 -6 3 -8
7 -5 3 4 11 3 18 -3 18 -15 194 -100 203 -98 4 1 17 -3 29 -10 12 -6 32 -14
45 -16 13 -3 23 -5 23 -6 0 -1 11 -3 24 -6 14 -2 30 -9 37 -15 6 -5 16 -9 20
-7 5 1 36 -3 69 -10 141 -28 181 -31 380 -28 116 2 220 6 231 9 12 3 39 8 60
11 59 9 102 18 169 36 22 6 51 13 64 16 14 3 29 8 35 12 6 3 20 8 31 9 34 6
227 103 290 147 103 72 159 125 227 219 21 29 41 57 46 62 21 28 64 132 88
211 23 77 28 110 30 244 2 85 0 173 -5 195 -5 22 -12 61 -15 88 -4 26 -11 58
-16 71 -5 13 -6 26 -4 29 3 3 1 15 -5 26 -6 11 -13 33 -15 48 -2 15 -14 62
-26 103 -12 41 -23 82 -24 90 -1 8 -18 62 -36 120 -18 58 -34 112 -35 120 -1
8 -5 23 -9 32 -4 9 -9 23 -10 32 -1 8 -5 19 -9 22 -4 4 -7 18 -7 31 0 14 -5
33 -10 43 -6 10 -11 30 -12 44 -1 15 -6 26 -10 26 -4 0 -7 3 -6 8 1 4 -2 21
-6 37 -11 43 -54 204 -66 245 -6 19 -12 44 -14 55 -2 11 -6 27 -9 35 -4 8 -8
26 -9 40 -2 14 -7 31 -11 38 -5 6 -6 12 -3 12 2 0 0 15 -5 33 -5 17 -11 43
-14 57 -3 14 -7 36 -10 50 -15 70 -54 291 -59 335 -4 28 -9 64 -12 80 -5 31
-11 102 -20 215 -8 114 -4 470 6 470 3 0 6 24 7 53 3 48 6 72 17 137 3 14 7
41 10 60 3 19 13 73 22 120 17 92 17 90 27 135 9 41 18 86 22 110 2 11 4 21 5
23 2 1 4 7 5 12 1 6 3 11 5 13 1 1 3 11 5 22 2 17 12 67 19 100 1 6 5 19 9 30
3 11 8 31 11 45 3 14 19 79 36 145 17 66 32 129 35 140 2 11 4 22 5 25 1 3 3
10 5 15 1 6 3 12 4 15 2 3 4 12 6 20 29 134 29 133 7 121 -11 -6 -22 -8 -24
-5 -3 3 -90 7 -194 10 -104 2 -225 7 -269 10 -44 2 -110 6 -147 7 -38 1 -68 4
-68 7 0 3 -26 6 -58 7 -31 1 -79 4 -107 7 -27 3 -72 8 -100 11 -27 3 -61 7
-75 9 -14 2 -51 7 -84 11 -32 4 -68 8 -80 10 -11 2 -42 6 -67 9 -25 4 -57 8
-70 11 -21 3 -56 8 -199 30 -14 3 -43 8 -65 11 -22 4 -50 8 -62 8 -13 1 -23 3
-23 6 0 3 -12 7 -27 8 -16 1 -37 4 -48 6 -11 2 -108 22 -215 44 -107 22 -202
43 -211 47 -14 5 -20 -10 -38 -92z"/>
<path d="M2037 4744 c-3 -4 -37 -8 -74 -10 -37 -1 -86 -5 -108 -8 -22 -2 -62
-7 -90 -11 -27 -3 -61 -7 -75 -10 -68 -11 -198 -35 -217 -40 -13 -3 -31 -7
-40 -9 -10 -2 -47 -12 -83 -21 -36 -9 -72 -19 -80 -20 -8 -2 -16 -4 -17 -5 -2
-2 -6 -3 -10 -4 -7 -2 -83 -25 -103 -31 -25 -8 -216 -87 -230 -95 -8 -5 -39
-20 -68 -34 -57 -27 -235 -144 -240 -158 -2 -4 -8 -8 -13 -8 -27 0 -229 -206
-301 -306 -54 -76 -185 -314 -172 -314 4 0 0 -7 -7 -17 -8 -9 -13 -18 -12 -19
3 -4 -2 -21 -14 -51 -3 -10 -5 -24 -4 -30 1 -7 -2 -13 -7 -13 -5 0 -9 -6 -10
-12 0 -7 -3 -22 -5 -33 -44 -171 -50 -218 -52 -410 -3 -231 10 -349 57 -532 7
-27 13 -50 14 -53 0 -3 3 -12 7 -20 3 -8 11 -33 18 -55 40 -134 175 -359 259
-431 14 -12 37 -33 52 -47 36 -34 114 -87 126 -87 6 0 12 -3 14 -7 6 -15 161
-80 208 -88 3 -1 23 -5 45 -9 22 -5 49 -10 60 -12 38 -6 240 -6 280 0 22 3 54
8 70 10 54 8 99 17 135 26 19 5 46 11 60 14 14 3 41 10 60 16 19 5 48 13 65
16 16 3 34 9 40 13 5 5 18 7 28 6 9 -2 17 1 17 6 0 5 3 8 8 8 4 -1 9 0 12 1 3
1 14 3 25 5 11 2 52 13 90 25 78 24 245 71 260 74 6 1 15 5 22 9 6 4 23 8 37
9 14 1 26 5 26 9 0 3 6 6 13 7 16 1 27 3 222 56 94 25 185 48 204 51 19 3 37
8 41 10 4 2 22 7 41 10 19 3 41 8 49 10 8 2 27 7 43 10 15 3 38 7 52 10 14 3
35 7 48 9 12 2 49 9 82 15 75 13 108 18 165 26 25 3 56 8 70 10 221 37 642 32
860 -10 14 -3 41 -7 60 -9 19 -3 71 -12 115 -21 44 -9 91 -18 105 -20 14 -2
36 -6 50 -9 14 -3 77 -17 140 -31 63 -15 169 -40 235 -57 66 -17 129 -32 140
-34 11 -1 54 -12 95 -24 41 -11 86 -22 100 -25 14 -2 86 -19 160 -38 74 -19
152 -38 172 -41 36 -7 37 -6 32 21 -3 15 -7 55 -10 88 -2 33 -6 87 -9 120 -11
148 -4 683 10 705 4 6 1 10 -6 10 -8 0 -8 4 -1 13 5 6 10 28 10 47 0 19 1 37
2 40 1 3 3 28 6 55 5 66 12 131 18 180 9 80 18 151 22 175 2 14 6 43 9 65 3
22 7 49 9 60 2 11 8 45 12 75 4 30 9 57 9 60 1 3 5 28 10 55 5 28 10 52 10 55
1 3 5 25 9 50 5 25 10 54 13 65 3 11 9 40 13 65 5 25 14 68 20 95 7 28 14 61
15 75 2 14 6 39 8 55 5 28 2 31 -21 33 -15 1 -38 5 -52 8 -25 5 -69 13 -105
18 -11 2 -20 4 -20 5 0 1 -16 4 -35 7 -19 2 -116 25 -215 51 -99 25 -188 46
-197 47 -10 0 -18 4 -18 8 0 4 -7 5 -15 2 -8 -4 -21 -2 -28 3 -6 5 -39 16 -72
23 -33 8 -64 15 -70 16 -106 29 -325 87 -340 89 -11 2 -67 16 -125 31 -58 15
-114 28 -125 30 -11 1 -65 14 -120 28 -55 14 -136 32 -180 41 -44 10 -89 19
-100 22 -11 2 -30 6 -42 9 -13 2 -33 6 -45 9 -13 2 -36 7 -53 10 -16 3 -39 7
-51 10 -12 3 -39 7 -60 10 -21 4 -46 8 -54 10 -8 3 -33 7 -55 10 -22 4 -51 8
-65 11 -110 20 -298 44 -312 41 -9 -3 -18 -1 -20 3 -2 5 -34 11 -73 14 -38 3
-104 8 -145 12 -41 3 -96 7 -122 7 -27 1 -48 5 -48 10 0 4 -8 3 -19 -2 -10 -6
-22 -7 -26 -3 -10 10 -475 9 -475 -2 0 -4 -6 -3 -13 3 -8 6 -17 8 -20 5z"/>
<path d="M8888 4525 c-4 -3 -152 -18 -190 -19 -16 -1 -28 -3 -28 -6 0 -3 -11
-7 -25 -8 -14 -1 -74 -13 -133 -27 -59 -14 -116 -28 -127 -30 -132 -30 -184
-49 -171 -62 2 -3 1 -17 -4 -32 -4 -15 -11 -58 -15 -95 -3 -37 -8 -76 -10 -87
-23 -117 -23 -531 0 -709 2 -19 6 -64 9 -100 3 -35 8 -71 11 -80 2 -8 7 -37
11 -65 7 -60 10 -81 18 -120 3 -16 8 -43 11 -60 3 -16 10 -50 15 -75 5 -25 11
-56 13 -70 2 -14 7 -32 10 -40 4 -8 9 -28 11 -45 3 -16 7 -41 11 -55 3 -14 8
-36 11 -50 9 -43 33 -138 86 -330 28 -102 51 -189 52 -195 2 -5 9 -30 16 -55
7 -25 14 -49 16 -55 1 -5 14 -50 29 -100 15 -49 31 -103 35 -120 25 -95 48
-150 61 -147 7 2 22 4 31 5 10 1 18 5 18 10 0 4 5 5 10 2 6 -3 16 -3 23 2 6 4
21 9 32 10 85 14 384 140 493 209 29 19 55 34 58 34 2 0 10 5 17 10 7 6 43 33
80 61 74 55 205 181 252 243 17 21 35 44 40 50 23 27 55 76 55 86 0 5 3 10 8
10 4 0 16 19 27 43 10 23 26 53 35 67 14 20 62 132 66 150 0 3 6 17 12 33 7
15 14 39 16 52 3 14 7 28 10 33 7 12 15 52 36 187 15 92 18 157 15 280 -2 88
-6 176 -9 195 -4 19 -8 49 -11 65 -17 128 -101 400 -137 442 -6 7 -7 13 -4 13
4 0 -2 14 -14 30 -12 17 -18 30 -13 30 4 0 3 4 -2 8 -6 4 -19 24 -30 45 -11
21 -28 47 -37 57 -10 11 -18 22 -18 24 0 22 -148 169 -215 214 -60 40 -113 67
-127 64 -5 -1 -8 2 -8 6 0 7 -34 18 -120 40 -71 17 -300 37 -312 27z"/>
<path d="M3498 2055 c-2 -1 -52 -6 -113 -9 -60 -4 -126 -9 -145 -12 -19 -2
-53 -6 -75 -9 -22 -3 -58 -7 -80 -11 -22 -3 -53 -7 -70 -9 -16 -2 -43 -6 -60
-9 -85 -16 -102 -19 -120 -21 -11 -1 -56 -10 -100 -20 -44 -9 -98 -21 -120
-25 -22 -5 -105 -25 -185 -45 -80 -20 -152 -38 -160 -40 -8 -2 -40 -10 -71
-19 -31 -9 -65 -18 -75 -20 -11 -3 -31 -9 -46 -15 -16 -6 -28 -9 -28 -7 0 2
-26 -4 -57 -14 -73 -23 -73 -19 -6 -230 58 -181 207 -472 278 -544 9 -9 14
-16 11 -16 -13 0 207 -230 263 -273 71 -56 197 -135 276 -173 97 -46 282 -111
343 -120 20 -3 44 -7 53 -10 21 -6 82 -14 135 -18 23 -2 48 -7 54 -11 9 -6 11
-4 5 4 -5 10 -3 11 11 4 20 -10 168 -9 209 1 15 4 25 2 25 -4 0 -6 5 -8 10 -5
6 4 29 8 53 10 112 11 141 15 217 30 79 16 181 45 212 61 15 8 30 14 33 14 3
0 6 0 8 1 1 0 9 2 17 4 37 8 157 71 239 125 177 119 324 316 367 493 18 76 25
114 29 175 3 29 7 57 10 63 4 5 2 9 -4 9 -7 0 -7 8 -1 24 5 13 6 26 4 29 -3 3
-7 34 -10 69 -2 34 -6 79 -9 98 -3 19 -8 49 -10 65 -5 28 -12 66 -19 90 -1 6
-8 37 -15 70 -7 33 -17 67 -22 76 -6 13 -101 40 -224 65 -5 1 -35 7 -65 13
-30 6 -68 12 -85 13 -16 1 -35 5 -40 9 -6 5 -33 10 -60 13 -28 3 -50 5 -50 6
0 3 -40 10 -75 15 -19 2 -46 6 -60 9 -14 2 -54 7 -90 11 -36 3 -81 8 -100 11
-37 5 -407 13 -412 9z"/>
</g>
</svg>
